<svg xmlns="http://www.w3.org/2000/svg" viewBox="0 0 64 112">
  <defs>
    <linearGradient id="body" x1="0" y1="0" x2="1" y2="1">
      <stop offset="0" stop-color="#fffdf8"/>
      <stop offset=".55" stop-color="#f6f1e8"/>
      <stop offset="1" stop-color="#cfd4da"/>
    </linearGradient>
    <filter id="shadow" x="-70%" y="-40%" width="240%" height="220%">
      <feDropShadow dx="0" dy="5" stdDeviation="4" flood-color="#060a12" flood-opacity=".62"/>
    </filter>
  </defs>
  <g filter="url(#shadow)">
    <path d="M32 5c11 0 17 7 15 17-2 10-8 17-7 27 1 13 13 23 16 41 3 17-7 18-24 18S5 107 8 90c3-18 15-28 16-41 1-10-5-17-7-27C15 12 21 5 32 5z" fill="url(#body)"/>
    <path d="M18 35h28l3 10H15z" fill="#f05b4f"/>
    <path d="M17 47h30l2 7H15z" fill="#d9413a"/>
    <path d="M19 76c8 8 20 10 30 4" fill="none" stroke="#ffffff" stroke-width="4" stroke-linecap="round" opacity=".58"/>
    <ellipse cx="32" cy="105" rx="20" ry="4" fill="#afb5bc" opacity=".42"/>
  </g>
</svg>